# created with M2_ModelExport v1.0r0
mtllib export_0002C5B5.mtl
o O2C5B5
v 55.385 11.608 -130.349
v 73.25 0 -126.477
v 58.579 0 -119.49
v 42.178 0 -119.595
v 43.136 11.445 -131.093
v 30.373 10.951 -136.215
v 23.027 0 -125.675
vt 126 131
vt 23 39
vt 126 27
vt 116 25
vt 126 11
vt 17 126
vt 11 25
vn 0.3097295 -0.6936165 -0.6503567
vn -4.679462E-03 -0.6824595 -0.7309085
vn -5.210678E-02 -0.7099429 -0.7023289
vn -0.2014991 -0.7460349 -0.6346889
g group0002C5B5
s off
# we should have 4 faces
usemtl FF205A39
f 1/1/1 2/2/1 3/3/1
f 1/1/2 3/3/2 4/4/2
f 1/1/3 4/4/3 5/5/3
f 6/6/4 4/7/4 7/7/4
