# created with M2_ModelExport v1.0r0
mtllib export_0002B091.mtl
o O2B091
v -392.823 94.804 -127.626
v -392.823 111.45 -127.626
v -383.172 112.533 -132.655
v -383.172 94.457 -132.655
v -382.448 116 -140.117
v -390.469 116 -132.976
v -401.788 116 -132.88
vt 54 42
vt 161 42
vt 47 112
vt 163 112
vt 0 0
vn 0.4621105 0 -0.8868223
vn 0.3742411 -0.8265845 -0.420359
vn 0.285335 -0.6644919 -0.6906768
vn 5.506097E-03 -0.7605549 -0.6492503
g group0002B091
s off
# we should have 4 faces
usemtl FFACDEFF
f 1/1/1 2/2/1 3/3/1 4/4/1
usemtl FFA4CDEE
f 5/5/2 3/5/2 6/5/2
f 6/5/3 3/5/3 2/5/3
f 6/5/4 2/5/4 7/5/4
