# created with M2_ModelExport v1.0r0
mtllib export_00017DB2.mtl
o O17DB2
v -252.982 92.35 -525.029
v -252.482 92.25 -524.163
v -259.41 91.25 -520.163
v -259.91 91.35 -521.029
v -266.338 90.25 -516.163
v -266.838 90.35 -517.029
v -273.267 89.15 -512.163
v -273.767 89.25 -513.029
v -273.766 89.25 -513.029
v -274.767 89.25 -514.761
v -267.838 90.35 -518.761
v -260.91 91.35 -522.761
v -253.982 92.35 -526.761
v -282.695 89.05 -512.493
v -282.695 93.05 -512.493
v -275.767 94.25 -516.493
v -275.767 90.25 -516.493
v -268.838 95.35 -520.493
v -268.838 91.35 -520.493
v -261.91 96.35 -524.493
v -261.91 92.35 -524.493
v -254.982 97.35 -528.493
v -254.982 93.35 -528.493
v -280.009 94.484 -542.598
v -280.413 91.951 -528.629
v -284.598 95 -539.093
v -287.384 95 -533.216
v -285.959 90.574 -522.722
v -290.473 95 -528.946
v -294.302 89.815 -515.716
v -298.386 95 -519.8
v -300.654 90.422 -506.362
v -305.138 95 -510.017
v -264.323 116 -580.604
v -257.153 111.169 -583.605
v -261.638 116 -572.312
v -254.943 111.18 -573.127
v -255.975 112.167 -562.43
v -262.196 116 -564.958
v -265.957 116 -557.112
v -261.359 111.654 -552.768
v -271.244 112.159 -547.14
v -273.525 116 -552.768
v -283.745 116 -552.443
v -282.863 112.475 -546.782
v -294.389 113.161 -545.893
v -294.211 116 -551.3
v -304.09 116 -550.675
v -304.851 112.064 -544.718
v -315.615 111.699 -543.382
v -314.869 116 -549.569
v -324.59 116 -549.282
v -326.953 111.995 -543.971
v -336.037 111.491 -548.55
v -331.569 116 -553.366
v -339.204 113.465 -559.944
v -344.477 104.619 -555.059
v -337.975 104.782 -546.305
v -327.991 105.369 -540.311
v -315.958 105.178 -539.619
v -304.816 104.868 -541.547
v -293.795 103.564 -542.948
v -282.209 105.311 -544.041
v -270.073 104.296 -544.471
v -258.784 104.954 -550.838
v -258.784 101.579 -550.838
v -258.784 97 -550.838
v -266.278 95.625 -546.842
v -270.073 102.079 -544.471
v -273.773 95.25 -542.846
v -280.008 94.484 -542.598
v -282.209 101.336 -544.041
v -293.795 98.704 -542.948
v -304.816 99.449 -541.547
v -315.958 99.193 -539.619
v -312.797 95 -503.636
v -327.991 96.64 -540.311
v -321.488 95 -500.802
v -337.975 95.163 -546.305
v -331.767 95 -501.421
v -344.477 95 -555.059
v -354.755 95 -555.678
v -342.917 95 -502.857
v -365.099 95 -553.406
v -355.982 95 -502.254
v -375.907 95 -548.933
v -363.884 95 -496.423
v -383.97 95 -540.039
v -370.987 95 -493.348
v -390.105 95 -530.676
v -262.195 116 -564.958
v -269.323 116 -579.604
v -276.638 116 -577.312
v -285.195 116 -574.958
v -294.957 116 -572.112
v -305.525 116 -569.768
v -314.745 116 -567.443
v -324.211 116 -564.3
v -332.09 116 -561.675
v -339.204 113.465 -559.943
v -274.813 92.661 -533.583
v -270.773 93.25 -537.65
v -263.844 94.55 -541.65
v -255.916 95.75 -545.65
v -289.623 87.75 -508.493
v -285.958 90.574 -522.722
v -254.482 93.35 -527.627
v -261.41 92.35 -523.627
v -268.338 91.35 -519.627
v -275.267 90.25 -515.627
v -282.195 89.05 -511.627
v -281.695 88.05 -510.761
vt 64 0
vt 64 64
vt 0 0
vt 0 64
vt 89 79
vt 67 66
vt 15 155
vt 38 168
vt 166 40
vt 143 27
vt 114 129
vt 92 116
vt 129 114
vt 217 41
vt 256 0
vt 0 256
vt 64 256
vt 112 63
vt 26 178
vt 108 282
vt 245 178
vt 123 245
vt 207 178
vt 213 186
vt 130 213
vt 137 186
vt 98 171
vt 110 171
vt 239 0
vt 266 255
vt 185 221
vt 185 274
vt 274 187
vt 120 221
vt 185 261
vt 261 120
vt 283 215
vt 156 295
vt 231 118
vt 231 167
vt 167 227
vt 231 142
vt 142 158
vt 283 100
vt 54 295
vt 217 8
vt 217 51
vt 49 146
vt 51 220
vt 146 8
vt 217 49
vt 150 10
vt 146 10
vt 86 49
vt 86 10
vt 79 49
vt 86 55
vt 79 10
vt 86 60
vt 10 55
vt 10 10
vt 17 60
vt 273 12
vt 266 12
vt 211 60
vt 211 10
vt 266 10
vt 194 60
vt 272 51
vt 276 101
vt 211 146
vt 272 151
vt 211 101
vt 221 151
vt 221 101
vt 157 151
vt 187 99
vt 262 60
vt 201 78
vt 72 132
vt 139 263
vt 137 225
vt 137 272
vt 139 272
vt 211 225
vt 211 267
vt 139 267
vt 204 225
vt 147 219
vt 153 242
vt 226 193
vt 226 242
vt 147 197
vt 197 226
vt 224 245
vt 295 241
vt 10 304
vt 10 191
vt 254 10
vt 10 245
vt 245 77
vt 81 309
vt 155 297
vt 248 151
vt 155 248
vt 155 249
vt 249 225
vt 203 203
vt 201 302
vt 150 203
vt 284 199
vt 186 153
vt 125 194
vt 0 130
vt 163 165
vt 110 192
vt 82 158
vt 82 200
vt 110 158
vt 56 200
vt 134 201
vt 110 156
vt 70 201
vt 134 206
vt 70 156
vt 56 206
vt 312 161
vt 326 161
vt 238 206
vt 108 179
vt 185 105
vt 150 148
vn -5.751845E-02 -0.9874277 -0.1472348
vn -6.809158E-02 -0.985853 -0.1531578
vn -0.1179491 -0.9906794 -6.813443E-02
vn -0.1074186 -0.9922776 -6.202016E-02
vn 0.5000105 0 -0.8660193
vn 0.4999577 0 -0.8660498
vn 0.2445029 -0.9528239 -0.1798472
vn 0.3127796 -0.9381811 -0.1482738
vn 0.1609781 -0.9170215 -0.3649077
vn 0.4198357 -0.855275 -0.3037148
vn 0.272557 -0.8663877 -0.4184316
vn 0.5059245 -0.7432647 -0.4377191
vn 0.5117273 -0.7831963 -0.3531835
vn 0.5034665 -0.8484952 0.1630255
vn 0.5702172 -0.8125155 0.1211238
vn 0.5826649 -0.8124961 1.875433E-02
vn 0.5126601 -0.85771 -0.0389001
vn 0.4476556 -0.8680773 -0.2145838
vn 0.4806661 -0.8197618 -0.3113692
vn 0.3163632 -0.8168474 -0.4823635
vn 0.2678742 -0.842882 -0.4666834
vn 1.776752E-02 -0.8291799 -0.5586994
vn 3.928278E-02 -0.8509615 -0.5237569
vn 9.050392E-02 -0.8516642 -0.5162142
vn 5.084732E-02 -0.8835403 -0.4655868
vn 2.944596E-02 -0.8845924 -0.4654346
vn -2.598138E-02 -0.835568 -0.5487724
vn 4.062635E-02 -0.8312424 -0.5544236
vn 5.895787E-02 -0.8163154 -0.5745896
vn 1.688946E-02 -0.8200168 -0.5720902
vn -1.022446E-02 -0.8005664 -0.5991567
vn -0.2923149 -0.8215612 -0.4894786
vn -0.2904886 -0.8180484 -0.4964002
vn -0.5128934 -0.8104723 -0.2829754
vn -0.7323002 -0.6069894 -0.3087075
vn -0.7407947 -0.395644 -0.5428526
vn -0.4888269 -0.4005389 -0.7749948
vn -0.4141245 -0.4889546 -0.7677398
vn -3.261655E-02 -0.4871667 -0.8726997
vn -4.175594E-02 -0.5010218 -0.8644267
vn 0.1620705 -0.4867936 -0.8583502
vn 9.937437E-02 -0.4016563 -0.9103829
vn 6.034291E-02 -0.4027585 -0.913315
vn 0.1550382 -0.2985757 -0.9417089
vn 4.544386E-02 -0.2956319 -0.9542204
vn 9.311791E-02 -0.3631922 -0.9270493
vn 3.851685E-02 -0.3601411 -0.9321024
vn 6.090149E-02 -0.3289504 -0.9423814
vn 0.4454054 -0.3465517 -0.8255398
vn 0.4677497 -0.4059338 -0.7851293
vn 0.7784361 -0.430716 -0.456641
vn 0.470517 0 -0.8823909
vn 0.4899286 3.195909E-02 -0.8711765
vn 0.4717581 4.607709E-02 -0.8805233
vn 1.099842E-02 -0.2258345 -0.9741036
vn 2.159232E-02 -0.212663 -0.976887
vn 4.224598E-02 -0.2188663 -0.9748399
vn 0.2795959 -0.932439 -0.2288746
vn 0.3149156 -0.9373056 -0.1492864
vn 0.2607185 -0.9468121 -0.1886073
vn 0.2287157 -0.9531694 -0.1978818
vn 0.0884705 -0.9806802 -0.1744689
vn 1.158661E-02 -0.9803098 -0.1971257
vn 0.1324248 -0.9869702 -0.0913968
vn 8.957241E-02 -0.9901606 -0.1075119
vn -0.2129758 -0.9681643 -0.1315268
vn -0.1878939 -0.9795769 -7.158823E-02
vn -3.678831E-02 -0.999285 -8.717307E-03
vn 0 -1 0
vn -0.8027881 0 -0.5962644
vn -0.5147239 0 -0.857356
vn -5.741003E-02 0 -0.9983507
vn 0.1705033 0 -0.9853571
vn 0.1261062 0 -0.9920167
vn 0.0939225 0 -0.9955795
vn 0.0354089 0 -0.9993729
vn 0.4912539 0 -0.8710164
vn -0.1788367 -0.9838148 -1.121359E-02
vn -7.890412E-02 -0.9877074 -0.1349378
vn -0.0677321 -0.9891995 -0.1299877
vn -4.557057E-02 -0.9940736 -9.869695E-02
vn -0.1050356 -0.9848298 -0.1381222
vn -6.527247E-02 -0.988809 -0.1341502
vn -2.257693E-02 -0.9690177 -0.2459571
vn -5.682484E-02 -0.9720254 -0.2278982
vn 4.743276E-02 -0.9823108 -0.1811512
vn 2.432156E-02 -0.9376041 -0.3468532
vn 0.1449924 -0.9485723 -0.2814034
vn -0.1078115 -0.9605479 -0.2563677
vn 9.382541E-02 -0.9716502 -0.2170083
vn -8.421478E-02 -0.9813032 -0.1730661
vn -7.236689E-02 -0.9828663 -0.1695195
vn -6.920717E-02 -0.9839618 -0.164407
vn -2.067681E-03 -0.9902087 -0.1395799
vn 3.393097E-02 -0.9832145 -0.1792705
vn 0.2759365 -0.7043619 -0.6540132
vn -0.1074176 -0.9922776 -0.0620218
vn 0.2680643 -0.7037871 -0.6578946
vn -0.1179566 -0.9906804 -6.810687E-02
vn -0.1284668 -0.9889359 -7.417533E-02
vn 0.2602431 -0.7031639 -0.6616904
g group00017DB2
s off
# we should have 132 faces
usemtl FFA4A4A4
f 1/1/1 2/2/1 3/3/1 4/4/1
f 4/4/1 3/3/1 5/2/1 6/1/1
f 6/1/2 5/2/2 7/3/2 8/4/2
usemtl FF397B62
f 9/1/3 10/2/3 11/2/3 6/1/3
usemtl FF398B73
f 6/1/4 11/2/4 12/3/4 4/4/4
usemtl FF399C83
f 4/4/4 12/3/4 13/3/4 1/3/4
usemtl 80FFFFFF
f 14/3/5 15/3/5 16/3/5 17/3/5
f 17/3/6 16/3/6 18/5/6 19/6/6
f 19/6/5 18/5/5 20/7/5 21/8/5
f 21/8/5 20/7/5 22/9/5 23/10/5
usemtl FF5283B4
f 24/11/7 25/12/7 26/12/7
usemtl FF6294C5
f 26/12/8 25/12/8 27/13/8
f 27/13/9 25/12/9 28/12/9
usemtl FF73A4DE
f 27/13/10 28/12/10 29/14/10
f 29/14/11 28/12/11 30/3/11
usemtl FF6294C5
f 29/14/12 30/3/12 31/3/12
usemtl FF5283B4
f 32/1/13 33/3/13 31/3/13
usemtl FF6294C5
f 34/15/14 35/4/14 36/4/14
f 36/4/15 35/4/15 37/16/15
f 36/4/16 37/16/16 38/4/16
usemtl FF5283B4
f 36/4/17 38/4/17 39/3/17
usemtl FF6294C5
f 39/3/18 38/4/18 40/15/18
usemtl FF5283B4
f 40/15/19 38/4/19 41/1/19
usemtl FF6294C5
f 40/15/20 41/1/20 42/15/20
f 40/15/21 42/15/21 43/17/21
f 43/17/22 42/15/22 44/4/22
usemtl FF5283B4
f 44/4/23 42/15/23 45/16/23
usemtl FF73A4DE
f 44/4/24 45/16/24 46/4/24
usemtl FF6294C5
f 44/4/25 46/4/25 47/3/25
usemtl FF73A4DE
f 47/3/26 46/4/26 48/3/26
usemtl FF5283B4
f 48/3/27 46/4/27 49/18/27
f 48/3/28 49/18/28 50/19/28
usemtl FF6294C5
f 48/3/29 50/19/29 51/20/29
usemtl FF73A4DE
f 51/20/30 50/19/30 52/21/30
usemtl FF6294C5
f 52/21/31 50/19/31 53/22/31
usemtl FF73A4DE
f 52/21/32 53/22/32 54/23/32
f 52/21/33 54/23/33 55/22/33
usemtl FF5283B4
f 55/22/34 54/23/34 56/24/34
usemtl FF6294C5
f 56/24/35 54/23/35 57/25/35
usemtl FF5283B4
f 57/25/36 54/23/36 58/26/36
f 58/26/37 54/23/37 59/25/37
usemtl FF73A4DE
f 59/25/38 54/23/38 53/26/38
usemtl FF5283B4
f 59/25/39 53/26/39 50/3/39
usemtl FF73A4DE
f 59/25/40 50/3/40 60/3/40
f 60/3/41 50/3/41 61/3/41
usemtl FF5283B4
f 61/3/42 50/3/42 49/27/42
f 61/3/43 49/27/43 46/28/43
usemtl FF6294C5
f 61/3/44 46/28/44 62/3/44
f 62/3/45 46/28/45 63/3/45
usemtl FF73A4DE
f 63/3/46 46/28/46 45/29/46
usemtl FF5283B4
f 63/3/47 45/29/47 42/30/47
f 63/3/48 42/30/48 64/31/48
usemtl FF73A4DE
f 64/31/49 42/30/49 65/30/49
f 65/30/50 42/30/50 41/32/50
usemtl FF5283B4
f 65/30/51 41/32/51 38/33/51
usemtl FF73A4DE
f 66/34/52 67/35/52 68/35/52
f 66/34/53 68/35/53 69/36/53
f 69/36/54 68/35/54 70/37/54
f 69/36/55 70/37/55 71/38/55
f 69/36/56 71/38/56 72/39/56
usemtl FF5283B4
f 72/39/57 71/38/57 73/38/57
usemtl FF73A4DE
f 73/38/58 71/38/58 26/40/58
usemtl FF5283B4
f 73/38/59 26/40/59 27/41/59
usemtl FF6294C5
f 73/38/60 27/41/60 29/42/60
f 73/38/61 29/42/61 31/43/61
usemtl FF73A4DE
f 73/38/62 31/43/62 74/44/62
usemtl FF6294C5
f 74/44/63 31/43/63 75/45/63
usemtl FF5283B4
f 75/45/64 31/43/64 33/46/64
usemtl FF6294C5
f 75/45/65 33/46/65 76/45/65
f 75/45/66 76/45/66 77/47/66
usemtl FF73A4DE
f 77/48/67 78/49/67 79/49/67
usemtl FF5283B4
f 79/50/68 80/51/68 81/51/68
f 81/51/69 80/51/69 82/48/69
usemtl FF6294C5
f 82/48/69 80/51/69 83/52/69 84/53/69
usemtl FF5283B4
f 84/53/69 83/52/69 85/54/69 86/55/69
usemtl FF73A4DE
f 86/55/69 85/54/69 87/53/69 88/56/69
usemtl FF6294C5
f 88/56/69 87/53/69 89/57/69 90/58/69
usemtl FF73A4DE
f 79/59/70 81/60/70 57/60/70 58/59/70
usemtl FF5283B4
f 79/59/71 58/59/71 59/61/71 77/62/71
usemtl FF73A4DE
f 77/62/72 59/61/72 60/63/72 75/64/72
usemtl FF6294C5
f 75/64/73 60/63/73 61/65/73 74/66/73
usemtl FF73A4DE
f 74/66/74 61/65/74 62/67/74 73/68/74
usemtl FF6294C5
f 73/68/75 62/67/75 63/69/75 72/70/75
f 72/70/76 63/69/76 64/71/76 69/72/76
f 69/72/77 64/71/77 65/73/77 66/74/77
f 36/73/69 91/75/69 92/75/69 34/73/69
f 92/75/69 91/75/69 40/76/69 93/77/69
usemtl FF5283B4
f 93/77/69 40/76/69 43/78/69 94/79/69
usemtl FF73A4DE
f 94/79/69 43/78/69 44/80/69 95/81/69
usemtl FF6294C5
f 95/81/69 44/80/69 47/82/69 96/83/69
f 96/83/69 47/82/69 48/84/69 97/85/69
usemtl FF73A4DE
f 97/85/69 48/84/69 51/86/69 98/87/69
usemtl FF5283B4
f 98/87/69 51/86/69 52/88/69 99/89/69
usemtl FF6294C5
f 99/89/78 52/88/78 55/90/78 100/91/78
usemtl 80205A39
f 24/92/7 25/93/7 26/93/7
f 26/93/8 25/93/8 27/94/8
f 27/94/9 25/93/9 28/95/9
f 27/94/10 28/95/10 29/94/10
f 29/94/11 28/95/11 30/96/11
f 29/94/12 30/96/12 31/94/12
f 26/97/58 73/98/58 71/98/58
f 71/98/57 73/98/57 72/99/57
f 71/98/56 72/99/56 69/100/56
f 71/98/55 69/100/55 70/101/55
f 70/101/54 69/100/54 68/102/54
f 68/102/53 69/100/53 66/101/53
f 68/102/52 66/101/52 67/103/52
usemtl FF205A39
f 17/104/79 101/101/79 19/101/79
f 19/101/80 101/101/80 21/105/80
f 21/105/81 101/101/81 102/104/81
f 21/105/82 102/104/82 103/106/82
f 21/105/83 103/106/83 23/107/83
f 67/108/84 104/109/84 103/109/84
f 67/108/85 103/109/85 68/110/85
f 68/110/86 103/109/86 70/111/86
f 70/111/87 103/109/87 102/110/87
f 70/111/88 102/110/88 101/112/88
f 70/111/89 101/112/89 71/113/89
f 105/3/90 30/114/90 106/114/90
f 105/3/91 106/114/91 14/3/91
f 14/3/92 106/114/92 17/3/92
f 17/3/93 106/114/93 25/115/93
f 17/3/94 25/115/94 101/116/94
f 101/116/95 25/115/95 71/115/95
usemtl FFC5BDB4
f 107/117/96 13/118/96 12/118/96 108/117/96
f 107/117/97 108/117/97 21/119/97 23/120/97
f 21/119/97 108/117/97 109/121/97 19/122/97
f 109/121/96 108/117/96 12/123/96 11/124/96
f 109/121/98 11/124/98 10/125/98 110/126/98
f 109/121/99 110/126/99 17/127/99 19/128/99
f 17/127/100 110/126/100 111/129/100 14/130/100
f 111/129/101 110/126/101 10/131/101 112/132/101
