# created with M2_ModelExport v1.0r0
mtllib export_0002D667.mtl
o O2D667
v -392.823 94.804 -127.626
v -405.018 95.778 -127.653
v -405.018 110.577 -127.653
v -392.823 111.45 -127.626
v -395.573 76.184 -123.108
v -406.589 75.233 -123.332
v -406.589 90.916 -123.332
v -395.573 91.269 -123.108
v -385.136 91.391 -127.351
v -385.136 74.945 -127.351
v -399.007 19 -115.746
v -410.354 19 -116.869
v -410.354 39.397 -116.869
v -399.007 38.241 -115.746
v -386.688 38.574 -118.251
v -386.688 19 -118.251
v -383.958 70.505 -124.209
v -383.958 44.7 -124.209
v -394.787 43.655 -119.966
v -394.787 70.04 -119.966
v -407.375 45.319 -119.6
v -407.375 68.993 -119.6
v -406.589 75.233 -123.331
v -401.788 116 -132.88
v -383.172 94.457 -132.655
v -406.589 90.916 -123.331
v -378.955 39.08 -123.445
vt 155 222
vt 161 300
vt 60 222
vt 54 300
vt 0 0
vt 209 186
vt 203 257
vt 109 186
vt 107 257
vt 107 255
vt 203 255
vt 106 327
vt 211 327
vt 128 252
vt 129 201
vt 121 128
vt 201 252
vt 201 129
vt 278 126
vt 300 86
vt 258 230
vt 231 89
vn -2.21405E-03 0 -0.9999976
vn -2.032978E-02 0 -0.9997934
vn 0.3766026 0 -0.9263749
vn -9.848769E-02 0 -0.9951383
vn 0.1992662 0 -0.9799454
vn 0.3648146 0 -0.9310802
vn 2.906339E-02 0 -0.9995776
vn -1.789263E-02 -0.5147575 -0.8571491
vn -5.679822E-02 -0.4488057 -0.8918225
vn 0.3807923 -0.4591602 -0.8026015
vn 0.2684827 -0.6028892 -0.7512934
vn -5.231187E-02 -0.7090034 -0.7032622
vn 0.3193487 -0.7643911 -0.5601096
vn 0.2728141 -0.6700758 -0.6903411
vn 5.993785E-02 -0.7681269 -0.637486
vn -3.648602E-02 -0.6705 -0.7410118
vn 0.4576033 -0.5066943 -0.7306573
vn 0.2325738 -0.6228463 -0.7469752
vn 0.1553242 -0.5291502 -0.8341908
vn 9.828278E-02 -0.563008 -0.8205867
vn -4.443367E-02 -0.4367075 -0.8985055
g group0002D667
s off
# we should have 21 faces
usemtl FFA4CDEE
f 1/1/1 2/2/1 3/3/1 4/4/1
usemtl FFACDEFF
f 5/5/2 6/5/2 7/5/2 8/5/2
f 5/5/3 8/5/3 9/5/3 10/5/3
f 11/6/4 12/7/4 13/7/4 14/6/4
usemtl FF94BDDE
f 11/6/5 14/6/5 15/8/5 16/9/5
usemtl FFACDEFF
f 17/10/6 18/11/6 19/11/6 20/10/6
f 20/10/7 19/11/7 21/12/7 22/13/7
f 22/5/8 23/5/8 20/5/8
usemtl FFBDEEFF
f 20/5/9 23/5/9 5/5/9
usemtl FFA4CDEE
f 20/5/10 5/5/10 10/5/10
f 20/5/11 10/5/11 17/14/11
usemtl FFACDEFF
f 24/15/12 4/16/12 3/16/12
usemtl FFA4CDEE
f 25/17/13 9/18/13 1/18/13
usemtl FFBDEEFF
f 1/18/14 9/18/14 8/15/14
usemtl FFACDEFF
f 1/18/15 8/15/15 2/19/15
usemtl FFA4CDEE
f 2/19/16 8/15/16 26/5/16
f 18/5/17 27/5/17 15/5/17
usemtl FFBDEEFF
f 18/5/18 15/5/18 19/5/18
usemtl FFACDEFF
f 19/5/19 15/5/19 14/20/19
usemtl FFBDEEFF
f 19/5/20 14/20/20 21/21/20
usemtl FFA4CDEE
f 21/21/21 14/20/21 13/22/21
