# created with M2_ModelExport v1.0r0
mtllib export_0003427E.mtl
o O3427E
v 386 0 308
v 386 0.1 307
v 434 0.1 307
v 434 0 308
v 386 0.1 305
v 434 0.1 305
v 386 0 326
v 434 0 326
v 431.671 45.165 286.039
v 422.635 45.326 288.159
v 422.635 70.698 288.159
v 431.671 69.657 286.039
v 412.537 45.858 287.54
v 412.537 69.66 287.54
v 401.831 45.95 283.515
v 401.831 71.697 283.515
v 392.155 44.859 282.277
v 392.155 70.021 282.277
v 381.387 44.149 283.615
v 381.387 70.066 283.615
v 384.647 7.148 292.668
v 384.647 13.607 292.668
v 393.904 13.235 291.162
v 393.904 8.137 291.162
v 404.084 14.63 291.729
v 404.084 6.883 291.729
v 413.615 13.992 296.593
v 413.615 7.182 296.593
v 423.713 14.49 296.877
v 423.713 7.281 296.877
v 433.421 14.032 294.924
v 433.421 7.367 294.924
v 382.059 19.262 289.657
v 382.059 39.846 289.657
v 392.658 38.465 287.648
v 392.658 20.288 287.648
v 403.005 38.918 288.214
v 403.005 19.678 288.214
v 413.04 37.817 292.911
v 413.04 19.387 292.911
v 423.139 39.479 293.194
v 423.139 18.648 293.194
v 432.846 39.042 291.241
v 432.846 18.495 291.241
v 403.006 19.678 288.214
v 429.993 76 279.675
v 420.453 76 283.292
v 410.355 76 282.673
v 400.32 76 278.48
v 390.309 76 277.913
v 403.006 38.918 288.214
v 416.795 44.37 339.324
v 425.606 45.214 343.112
v 425.606 69.288 343.112
v 416.795 70.317 339.324
v 406.659 71.371 338.471
v 406.659 45.398 338.471
v 397.223 68.56 341.944
v 397.223 44.391 341.944
v 386.883 68.301 342.216
v 386.883 43.51 342.216
v 383.746 38.497 334.208
v 383.746 19.397 334.208
v 393.016 18.241 333.799
v 393.016 38.606 333.799
v 402.652 20.074 330.723
v 402.652 39.276 330.723
v 411.718 17.692 329.974
v 411.718 39.39 329.974
v 420.797 18.417 333.227
v 420.797 40.494 333.227
v 429.991 18.439 336.857
v 429.991 39.619 336.857
v 385.28 90.736 346.49
v 385.28 77.236 346.49
v 395.62 75.867 346.219
v 395.62 90.91 346.219
v 405.591 74.945 344.349
v 405.591 90.733 344.349
v 415.726 75.233 344.935
v 415.726 89.549 344.935
v 424.538 76.184 348.456
v 424.538 90.274 348.456
v 382.876 96 352.635
v 392.681 96 350.76
v 395.619 90.91 346.219
v 402.919 96 349.425
v 411.986 96 349.744
v 424.537 90.274 348.456
v 421.064 96 352.998
v 397.222 44.391 341.944
v 424.537 76.184 348.456
v 397.222 68.56 341.944
v 395.619 75.867 346.219
v 386 1 303
v 394 1 303
v 402 1 303
v 410 1 303
v 418 1 303
v 426 1 303
v 434 1 303
v 434 15 327.001
v 426 15 327.001
v 418 15 327.001
v 410 15 327.001
v 402 15 327.001
v 394 15 327.001
v 386 15 327.001
v 386 15 326
v 434 15 326
v 434 15 327
v 386 15 327
v 386 1 304
v 434 1 304
vt 0 64
vt 0 0
vt 64 64
vt 64 0
vt 64 76
vt 89 76
vt 64 691
vt 89 691
vt 243 76
vt 12 76
vt 243 691
vt 12 691
vt 222 156
vt 221 101
vt 59 101
vt 66 156
vt 218 36
vt 66 36
vt 66 292
vt 218 292
vt 217 221
vt 53 221
vt 63 158
vt 224 158
vt 158 63
vt 91 229
vt 209 210
vt 171 267
vt 11 203
vt 162 77
vt 171 11
vt 77 162
vt 211 77
vt 139 162
vt 210 139
vt 138 210
vt 163 203
vt 203 209
vt 0 208
vt 265 166
vt 192 132
vt 9 259
vt 3 126
vt 9 3
vt 69 6
vt 130 69
vt 134 13
vt 134 6
vt 134 131
vt 199 13
vt 199 3
vt 199 136
vt 261 6
vt 261 3
vt 0 137
vt 109 0
vt 93 161
vt 161 120
vt 109 108
vt 169 108
vt 161 161
vt 41 158
vt 33 158
vt 98 108
vt 41 113
vt 98 158
vt 104 113
vt 94 135
vt 101 152
vt 96 94
vt 101 117
vt 117 159
vt 35 159
vt 117 31
vt 35 122
vt 122 96
vt 96 158
vt 99 158
vt 99 115
vt 115 157
vt 0 152
vt 45 78
vt 22 100
vt 100 97
vt 69 22
vt 43 100
vt 69 150
vt 107 113
vt 86 124
vt 76 86
vt 34 124
vt 108 34
vt 67 18
vt 67 146
vt 108 162
vt 119 100
vt 74 82
vt 135 34
vt 0 135
vt 96 56
vt 109 52
vt 115 44
vt 97 115
vt 171 44
vt 51 96
vt 179 42
vt 96 51
vt 119 42
vt 118 119
vt 115 42
vt 176 56
vt 182 61
vt 110 54
vt 99 61
vt 55 99
vt 106 109
vt 228 275
vt 222 214
vt 68 214
vt 228 19
vt 61 275
vt 61 19
vt 55 81
vt 221 82
vt 221 81
vt 55 82
vt 73 143
vn 0 -0.9950372 -9.950372E-02
vn 0 -1 0
vn 0.2284147 0 -0.9735639
vn -6.118311E-02 0 -0.9981266
vn -0.3519087 0 -0.9360343
vn -0.1269116 0 -0.991914
vn 0.1233071 0 -0.9923686
vn 0.160578 0 -0.9870232
vn -5.561275E-02 0 -0.9984524
vn -0.4545623 0 -0.8907149
vn -2.811588E-02 0 -0.9996046
vn 0.1972237 0 -0.9803585
vn 0.1862305 0 -0.9825061
vn -5.461809E-02 0 -0.9985073
vn -0.4239242 0 -0.9056976
vn -2.801055E-02 0 -0.9996076
vn 0.1972428 0 -0.9803547
vn 0.1129438 -0.5067509 -0.8546621
vn 0.1604377 -0.4627265 -0.8718624
vn -2.294104E-02 -0.4425746 -0.8964382
vn -0.1213549 -0.5496262 -0.8265495
vn -0.3604831 -0.4799449 -0.7998155
vn -0.367777 -0.4971426 -0.7858685
vn 1.822392E-02 -0.5649403 -0.8249305
vn -5.357555E-02 -0.6579499 -0.7511535
vn 0.1570653 -0.6668885 -0.7284162
vn 0.1804765 -0.6397657 -0.7470797
vn 0.2467105 -0.7181301 -0.6507097
vn 0.2375802 -0.7081322 -0.6649093
vn -0.1127001 -0.646364 -0.7546604
vn -0.0490601 -0.5975193 -0.8003523
vn -0.1990775 -0.5527146 -0.8092433
vn -0.2803125 -0.6865592 -0.6708661
vn -0.2090754 -0.7115306 -0.6708291
vn -4.608129E-02 -0.5796062 -0.8135927
vn 0.1005232 -0.6066304 -0.788603
vn 1.814032E-02 -0.8153628 -0.5786661
vn 0.222865 -0.6372377 -0.7377393
vn -0.1680176 -0.6262686 -0.7612869
vn -6.956735E-02 -0.54619 -0.8347676
vn -0.3258784 -0.4870224 -0.8103163
vn -0.2972429 -0.5174076 -0.8024563
vn -2.179316E-02 -0.5543649 -0.8319883
vn -0.1266992 -0.6409774 -0.7570305
vn 0.1844643 -0.6504136 -0.7368413
vn 0.1770488 -0.6567476 -0.7330322
vn 0.394964 0 0.9186966
vn 8.385861E-02 0 0.9964777
vn -0.3454049 0 0.9384537
vn -2.629683E-02 0 0.9996542
vn -4.407762E-02 0 0.9990281
vn -0.3041025 0 0.9526393
vn -8.233527E-02 0 0.9966047
vn 0.3373006 0 0.941397
vn 0.367236 0 0.9301278
vn -2.619953E-02 0 0.9996567
vn -0.1843296 0 0.9828645
vn 5.772283E-02 0 0.9983326
vn 0.3710458 0 0.9286146
vn -0.1288375 -0.7276563 0.6737338
vn -0.0308103 -0.655443 0.754616
vn -0.1004764 -0.6294312 0.7705328
vn -0.1282542 -0.6536973 0.7458088
vn 2.510008E-02 -0.7002839 0.713423
vn 0.1184362 -0.6366878 0.7619721
vn 0.229799 -0.6637993 0.7117323
vn 0.2444677 -0.6892676 0.6820159
vn -3.301527E-02 -0.8529212 0.5209946
vn -8.534414E-02 -0.8325886 0.5472774
vn -0.2149641 -0.8452054 0.4893039
vn -0.2733195 -0.8184789 0.50536
vn -5.957995E-02 -0.7979943 0.5997127
vn 0.1293901 -0.8443304 0.5199657
vn 7.417734E-02 -0.8629113 0.4998818
vn 0.1206861 -0.871702 0.4749427
vn 0.2826266 -0.8048779 0.5218177
vn 0.2333213 -0.617977 0.7507767
vn 0.3370701 -0.7390341 0.5832772
vn 0.1325656 -0.7578958 0.6387646
vn 5.701514E-03 -0.8548965 0.5187672
vn -0.4148227 -0.7420589 0.526565
vn -0.1182384 -0.4819849 0.8681648
vn -3.527909E-02 -0.4988876 0.8659483
vn 3.419609E-02 -0.4362489 0.8991761
vn -8.435354E-03 -0.8588496 -0.5121583
vn 0 -0.8563997 -0.5163134
vn 8.171744E-02 -0.8772621 -0.4730046
vn -0.2389467 -0.878248 -0.4142282
vn 0 -0.7196305 -0.6943572
vn -2.675054E-02 -0.7101622 -0.7035297
vn 0 -0.6980423 -0.7160565
vn 0.1157365 -0.7840381 -0.6098273
vn 0 -0.9441744 0.329446
vn 0.1472461 -0.9138225 0.3784799
vn 0 -0.876649 0.4811304
vn 0.1179307 -0.8472329 0.5179659
vn 0 -0.7412691 0.671208
vn 0.1252612 -0.69834 0.7047204
vn 0 -0.5914724 0.8063253
vn -0.3455944 -0.5834968 0.7349122
vn 0 -0.9026617 0.4303507
vn 8.549078E-02 -0.8622043 0.4992945
vn 0 0 1
vn 0 -0.7432942 -0.6689647
g group0003427E
s off
# we should have 121 faces
usemtl FFA4A4A4
f 1/1/1 2/2/1 3/3/1 4/4/1
usemtl FF398B73
f 2/2/2 5/2/2 6/2/2 3/2/2
usemtl FFFFFFEE
f 7/2/2 1/2/2 4/2/2 8/2/2
usemtl FF5283B4
f 9/5/3 10/6/3 11/6/3 12/5/3
usemtl FF6294C5
f 11/6/4 10/6/4 13/7/4 14/8/4
usemtl FF73A4DE
f 14/8/5 13/7/5 15/2/5 16/2/5
f 16/2/6 15/2/6 17/2/6 18/2/6
f 18/2/7 17/2/7 19/9/7 20/10/7
f 21/11/8 22/12/8 23/12/8 24/11/8
f 24/11/9 23/12/9 25/2/9 26/2/9
usemtl FF5283B4
f 26/2/10 25/2/10 27/2/10 28/2/10
usemtl FF6294C5
f 28/2/11 27/2/11 29/13/11 30/14/11
usemtl FF5283B4
f 30/14/12 29/13/12 31/15/12 32/16/12
f 33/14/13 34/15/13 35/15/13 36/14/13
f 36/14/14 35/15/14 37/17/14 38/18/14
usemtl FF73A4DE
f 38/18/15 37/17/15 39/19/15 40/20/15
f 40/20/16 39/19/16 41/21/16 42/22/16
usemtl FF6294C5
f 42/22/17 41/21/17 43/22/17 44/21/17
usemtl FF83ACEE
f 22/23/18 33/24/18 36/24/18
usemtl FF73A4DE
f 22/23/19 36/24/19 23/25/19
f 23/25/20 36/24/20 45/24/20
usemtl FF6294C5
f 23/25/21 45/24/21 25/26/21
usemtl FF83ACEE
f 25/26/22 45/24/22 40/2/22
f 25/26/23 40/2/23 27/2/23
usemtl FF73A4DE
f 27/2/24 40/2/24 42/2/24
f 27/2/25 42/2/25 29/27/25
usemtl FF6294C5
f 29/27/26 42/2/26 44/28/26
usemtl FF73A4DE
f 29/27/27 44/28/27 31/29/27
usemtl FF83ACEE
f 46/30/28 12/31/28 47/31/28
f 47/31/29 12/31/29 11/32/29
usemtl FF6294C5
f 47/31/30 11/32/30 14/33/30
usemtl FF83ACEE
f 47/31/31 14/33/31 48/34/31
usemtl FF6294C5
f 48/34/32 14/33/32 16/35/32
usemtl FF73A4DE
f 48/34/33 16/35/33 49/36/33
f 49/36/34 16/35/34 18/37/34
usemtl FF6294C5
f 49/36/35 18/37/35 50/38/35
f 50/38/36 18/37/36 20/37/36
usemtl FF83ACEE
f 34/39/37 19/40/37 17/40/37
usemtl FF73A4DE
f 34/39/38 17/40/38 35/2/38
usemtl FF83ACEE
f 35/2/39 17/40/39 15/2/39
usemtl FF6294C5
f 35/2/40 15/2/40 51/2/40
f 51/2/41 15/2/41 39/41/41
usemtl FF83ACEE
f 39/41/42 15/2/42 13/42/42
usemtl FF6294C5
f 39/41/43 13/42/43 10/43/43
f 39/41/44 10/43/44 41/44/44
f 41/44/45 10/43/45 9/45/45
usemtl FF83ACEE
f 41/44/46 9/45/46 43/46/46
usemtl FF8BC5EE
f 52/47/47 53/48/47 54/48/47 55/47/47
f 52/47/48 55/47/48 56/49/48 57/49/48
usemtl FF9CD5FF
f 57/49/49 56/49/49 58/50/49 59/51/49
usemtl FF7BB4DE
f 59/51/50 58/50/50 60/52/50 61/52/50
usemtl FF8BC5EE
f 62/53/51 63/54/51 64/54/51 65/53/51
usemtl FF7BB4DE
f 65/53/52 64/54/52 66/55/52 67/2/52
f 67/2/53 66/55/53 68/2/53 69/2/53
usemtl FF8BC5EE
f 69/2/54 68/2/54 70/56/54 71/57/54
usemtl FF7BB4DE
f 71/57/55 70/56/55 72/58/55 73/59/55
f 74/60/56 75/61/56 76/61/56 77/60/56
usemtl FF9CD5FF
f 77/60/57 76/61/57 78/62/57 79/63/57
usemtl FF8BC5EE
f 79/63/58 78/62/58 80/64/58 81/65/58
f 81/65/59 80/64/59 82/66/59 83/67/59
usemtl FFA4E6FF
f 84/68/60 74/69/60 85/69/60
usemtl FF9CD5FF
f 85/69/61 74/69/61 86/70/61
usemtl FF8BC5EE
f 85/69/62 86/70/62 87/71/62
usemtl FFA4E6FF
f 87/71/63 86/70/63 79/72/63
f 87/71/64 79/72/64 88/73/64
usemtl FF9CD5FF
f 88/73/65 79/72/65 81/74/65
usemtl FF8BC5EE
f 88/73/66 81/74/66 89/75/66
usemtl FF9CD5FF
f 88/73/67 89/75/67 90/76/67
f 61/77/68 62/78/68 65/78/68
usemtl FFA4E6FF
f 61/77/69 65/78/69 91/76/69
usemtl FF8BC5EE
f 91/76/70 65/78/70 67/79/70
usemtl FF9CD5FF
f 91/76/71 67/79/71 57/80/71
f 57/80/72 67/79/72 69/81/72
f 57/80/73 69/81/73 52/2/73
usemtl FFA4E6FF
f 52/2/74 69/81/74 71/2/74
usemtl FF8BC5EE
f 52/2/75 71/2/75 53/82/75
f 53/82/76 71/2/76 73/83/76
f 92/84/77 80/85/77 54/85/77
f 54/85/78 80/85/78 55/86/78
f 55/86/79 80/85/79 56/87/79
usemtl FF9CD5FF
f 56/87/80 80/85/80 78/88/80
usemtl FF8BC5EE
f 56/87/81 78/88/81 93/87/81
usemtl FF9CD5FF
f 93/87/82 78/88/82 94/89/82
f 93/87/83 94/89/83 60/90/83
usemtl FFA4E6FF
f 60/90/84 94/89/84 75/91/84
usemtl 80205A39
f 70/92/55 72/90/55 73/90/55 71/92/55
f 70/92/54 71/92/54 69/93/54 68/94/54
f 68/94/53 69/93/53 67/95/53 66/96/53
f 66/96/52 67/95/52 65/94/52 64/96/52
f 64/96/51 65/94/51 62/97/51 63/97/51
usemtl FF205A39
f 95/98/85 21/96/85 24/96/85
f 95/98/86 24/96/86 96/99/86
f 96/99/86 24/96/86 97/2/86
f 97/2/87 24/96/87 26/2/87
f 97/2/88 26/2/88 28/100/88
f 97/2/89 28/100/89 98/101/89
f 98/101/89 28/100/89 99/100/89
f 99/100/90 28/100/90 30/102/90
f 99/100/91 30/102/91 100/103/91
f 100/103/91 30/102/91 101/104/91
f 101/104/92 30/102/92 32/103/92
f 102/105/93 72/106/93 103/106/93
f 103/106/94 72/106/94 70/107/94
f 103/106/95 70/107/95 104/108/95
f 104/108/96 70/107/96 68/109/96
f 104/108/97 68/109/97 105/110/97
f 105/110/98 68/109/98 66/109/98
f 105/110/99 66/109/99 106/111/99
f 106/111/100 66/109/100 64/109/100
f 106/111/101 64/109/101 107/112/101
f 107/112/101 64/109/101 108/113/101
f 108/113/102 64/109/102 63/114/102
usemtl 80205A39
f 32/115/12 30/113/12 29/113/12 31/115/12
f 29/113/11 30/113/11 28/116/11 27/2/11
f 27/2/10 28/116/10 26/2/10 25/2/10
f 25/2/9 26/2/9 24/2/9 23/117/9
f 23/117/8 24/2/8 21/118/8 22/119/8
usemtl FFBDBDBD
f 109/120/103 7/121/103 8/121/103 110/120/103
f 109/120/2 110/120/2 111/122/2 112/123/2
f 113/124/2 95/125/2 101/125/2 114/124/2
f 113/124/104 114/124/104 6/126/104 5/127/104
